<svg aria-hidden="true" style="width:0;height:0;position:absolute;overflow:hidden" xmlns="http://www.w3.org/2000/svg"><defs><symbol id="facebook" viewBox="0 0 33 32"><path fill="#fff" style="fill:var(--color1,#fff)" d="M17.149 0c8.837 0 16 7.163 16 16s-7.163 16-16 16-16-7.163-16-16 7.163-16 16-16z"/><path fill="#001414" style="fill:var(--color2,#001414)" d="M21.149 13.181h-2.952V11.52c0-.624.481-.769.821-.769h2.083V8.01l-2.868-.009c-3.185 0-3.909 2.045-3.909 3.353v1.827h-1.841v2.827h1.84v7.993h3.875v-7.993h2.613l.339-2.827z"/></symbol><symbol id="insta" viewBox="0 0 33 32"><path fill="#fff" style="fill:var(--color1,#fff)" d="M17.149 0c8.837 0 16 7.163 16 16s-7.163 16-16 16-16-7.163-16-16 7.163-16 16-16z"/><path fill="#001414" style="fill:var(--color2,#001414)" d="M25.149 9a1 1 0 1 1-2 0 1 1 0 0 1 2 0zM17.149 23a7 7 0 1 1 0-14 7 7 0 1 1 0 14zm0-2.333a4.667 4.667 0 0 0 0-9.334 4.667 4.667 0 0 0 0 9.334z"/></symbol><symbol id="line1_desk" viewBox="0 0 577 32"><path fill="#001414" style="fill:var(--color2,#001414)" d="M17.149 23a7 7 0 1 1 0-14 7 7 0 1 1 0 14zm0-2.333a4.667 4.667 0 0 0 0-9.334 4.667 4.667 0 0 0 0 9.334z"/></symbol><symbol id="line1_mob" viewBox="0 0 174 32"><path fill="#001414" style="fill:var(--color2,#001414)" d="M17.149 23a7 7 0 1 1 0-14 7 7 0 1 1 0 14zm0-2.333a4.667 4.667 0 0 0 0-9.334 4.667 4.667 0 0 0 0 9.334z"/></symbol><symbol id="line1_tab" viewBox="0 0 346 32"><path fill="#001414" style="fill:var(--color2,#001414)" d="M17.149 23a7 7 0 1 1 0-14 7 7 0 1 1 0 14zm0-2.333a4.667 4.667 0 0 0 0-9.334 4.667 4.667 0 0 0 0 9.334z"/></symbol><symbol id="line2_desk" viewBox="0 0 577 32"><path fill="#001414" style="fill:var(--color2,#001414)" d="M17.149 23a7 7 0 1 1 0-14 7 7 0 1 1 0 14zm0-2.333a4.667 4.667 0 0 0 0-9.334 4.667 4.667 0 0 0 0 9.334z"/></symbol><symbol id="line2_mob" viewBox="0 0 171 32"><path fill="#001414" style="fill:var(--color2,#001414)" d="M17.149 23a7 7 0 1 1 0-14 7 7 0 1 1 0 14zm0-2.333a4.667 4.667 0 0 0 0-9.334 4.667 4.667 0 0 0 0 9.334z"/></symbol><symbol id="line2_tab" viewBox="0 0 346 32"><path fill="#001414" style="fill:var(--color2,#001414)" d="M17.149 23a7 7 0 1 1 0-14 7 7 0 1 1 0 14zm0-2.333a4.667 4.667 0 0 0 0-9.334 4.667 4.667 0 0 0 0 9.334z"/></symbol><symbol id="menu_close" viewBox="0 0 32 32"><path fill="none" stroke="#86e543" style="stroke:var(--color3,#86e543)" stroke-linecap="round" stroke-width="3.556" d="M29.629 30.222 2.37 1.778m27.259 0L2.37 30.222"/></symbol><symbol id="menu_open" viewBox="0 0 48 32"><path fill="#86e543" style="fill:var(--color3,#86e543)" d="M45.467 13.333H2.534c-1.399 0-2.533.681-2.533 1.52v.16c0 .839 1.134 1.52 2.533 1.52h42.933c1.399 0 2.533-.681 2.533-1.52v-.16c0-.839-1.134-1.52-2.533-1.52zm0 13.334H2.534c-1.399 0-2.533.681-2.533 1.52v.16c0 .839 1.134 1.52 2.533 1.52h42.933c1.399 0 2.533-.681 2.533-1.52v-.16c0-.839-1.134-1.52-2.533-1.52zm0-26.667H2.534C1.135 0 .001.681.001 1.52v.16c0 .839 1.134 1.52 2.533 1.52h42.933C46.866 3.2 48 2.519 48 1.68v-.16C48 .681 46.866 0 45.467 0z"/></symbol><symbol id="youtube" viewBox="0 0 33 32"><path fill="#fff" style="fill:var(--color1,#fff)" d="M17.149 0c8.837 0 16 7.163 16 16s-7.163 16-16 16-16-7.163-16-16 7.163-16 16-16z"/><path fill="#001414" style="fill:var(--color2,#001414)" d="M23.4 10.987a1.958 1.958 0 0 1 1.415 1.351c.335 1.192.335 3.68.335 3.68s0 2.487-.333 3.679c-.185.657-.727 1.153-1.416 1.329-1.247.32-6.251.32-6.251.32s-5.003 0-6.251-.32c-.689-.176-1.231-.672-1.415-1.329-.333-1.192-.333-3.68-.333-3.68s0-2.487.333-3.679a1.967 1.967 0 0 1 1.4-1.348l.014-.003c1.249-.32 6.255-.32 6.255-.32s5.003 0 6.249.32zm-7.887 2.772v4.516l4.181-2.259-4.181-2.257z"/></symbol></defs></svg>